<?xml version="1.0" standalone="no"?>
<!DOCTYPE svg PUBLIC "-//W3C//DTD SVG 20010904//EN"
 "http://www.w3.org/TR/2001/REC-SVG-20010904/DTD/svg10.dtd">
<svg version="1.0" xmlns="http://www.w3.org/2000/svg"
 width="459.000000pt" height="164.000000pt" viewBox="0 0 459.000000 164.000000"
 preserveAspectRatio="xMidYMid meet">

<g transform="translate(0.000000,164.000000) scale(0.100000,-0.100000)"
fill="#000000" stroke="none">
<path d="M2099 1517 c-9 -12 -33 -46 -53 -74 l-38 -53 64 0 63 1 80 74 80 75
-90 0 c-81 -1 -92 -3 -106 -23z"/>
<path d="M1966 1313 c-15 -71 -99 -540 -131 -733 -19 -118 -38 -225 -40 -237
-5 -22 -3 -23 79 -23 l84 0 11 83 c19 128 7 117 126 117 l103 0 11 -67 c6 -38
14 -80 17 -96 l6 -27 89 0 c49 0 89 4 89 8 0 25 -165 947 -176 985 -5 15 -20
17 -134 17 l-128 0 -6 -27z m204 -630 c0 -22 -4 -23 -81 -23 l-81 0 6 28 c3
15 17 99 31 187 14 88 31 187 37 220 l12 60 38 -225 c20 -124 37 -235 38 -247z"/>
<path d="M2490 837 l0 -507 38 0 c20 0 61 -3 90 -6 l52 -7 0 220 0 219 115 -4
116 -5 -3 74 -3 74 -112 3 -113 3 0 151 0 151 145 -7 145 -8 0 71 0 71 -68 0
c-38 0 -144 3 -235 7 l-167 6 0 -506z"/>
<path d="M890 1321 l-115 -6 -42 -245 c-62 -370 -136 -850 -130 -856 2 -3 40
1 83 8 l79 13 14 102 c10 78 18 104 30 107 9 3 57 8 107 12 l90 6 13 -88 c7
-49 14 -94 16 -100 2 -7 30 -7 91 -1 49 5 90 10 91 11 2 2 -77 473 -131 778
-25 142 -46 260 -46 263 0 3 -8 4 -17 3 -10 -1 -70 -4 -133 -7z m54 -465 c20
-131 35 -240 34 -241 -9 -7 -158 -15 -158 -8 -1 34 75 501 81 496 3 -5 23
-115 43 -247z"/>
<path d="M1298 809 l-3 -521 80 6 c44 3 127 8 185 11 58 3 129 8 158 11 l52 5
0 76 0 76 -145 -6 -145 -6 0 434 0 435 -90 0 -90 0 -2 -521z"/>
<path d="M3042 818 l3 -513 160 -11 c88 -6 193 -15 233 -19 l72 -7 0 80 0 79
-37 6 c-21 3 -86 9 -145 13 l-108 7 0 438 0 439 -90 0 -90 0 2 -512z"/>
<path d="M3584 1321 c-2 -2 -4 -242 -4 -532 l0 -527 53 -6 c28 -4 69 -9 90
-12 l37 -6 0 540 0 541 -86 3 c-47 2 -88 1 -90 -1z"/>
<path d="M3864 1303 c29 -74 176 -496 176 -504 0 -5 -43 -131 -95 -280 -52
-148 -95 -274 -95 -278 0 -11 28 -18 105 -26 l60 -7 69 216 c38 119 73 213 77
209 4 -5 37 -111 73 -237 36 -126 67 -230 68 -232 5 -4 181 -34 184 -31 4 4
-71 259 -138 473 l-54 171 87 249 c48 137 88 257 88 267 1 16 -8 18 -81 15
l-81 -3 -65 -195 -65 -195 -66 200 -66 200 -94 3 c-86 3 -93 1 -87 -15z"/>
<path d="M118 1303 c-17 -4 -18 -41 -18 -589 l0 -585 33 6 c17 4 122 21 232
39 l200 32 3 87 c3 87 3 88 -20 83 -13 -3 -63 -10 -113 -16 -49 -6 -105 -13
-122 -16 l-33 -6 0 486 0 486 -72 -1 c-40 -1 -81 -3 -90 -6z"/>
</g>
</svg>
