<?xml version="1.0" standalone="no"?>
<!DOCTYPE svg PUBLIC "-//W3C//DTD SVG 20010904//EN"
 "http://www.w3.org/TR/2001/REC-SVG-20010904/DTD/svg10.dtd">
<svg version="1.0" xmlns="http://www.w3.org/2000/svg"
 width="459.000000pt" height="164.000000pt" viewBox="0 0 459.000000 164.000000"
 preserveAspectRatio="xMidYMid meet">

<g transform="translate(0.000000,164.000000) scale(0.100000,-0.100000)"
fill="#000000" stroke="none">
<path d="M2064 1467 l-52 -72 60 -3 60 -3 71 67 c40 37 74 71 75 76 2 4 -34 8
-80 8 l-83 -1 -51 -72z"/>
<path d="M2038 1333 c-58 -3 -67 -6 -72 -26 -8 -35 -113 -617 -141 -787 -14
-85 -28 -165 -30 -178 -6 -23 -5 -23 77 -20 l83 3 16 95 15 95 107 3 c59 1
107 1 107 -1 0 -2 5 -30 10 -63 6 -32 13 -74 16 -91 l5 -33 89 0 c50 0 90 4
90 8 0 20 -160 917 -175 980 -6 24 -12 24 -197 15z m131 -645 l1 -28 -80 0
-81 0 6 33 c3 17 19 115 35 217 17 102 33 199 37 215 5 22 17 -30 44 -190 21
-121 38 -232 38 -247z"/>
<path d="M2494 1331 c-2 -2 -4 -229 -4 -503 l0 -498 59 0 c32 0 73 -3 90 -6
l31 -7 0 222 0 221 115 -7 116 -6 -3 74 -3 74 -112 3 -113 3 0 150 0 151 143
-3 142 -4 3 67 3 67 -231 3 c-128 2 -234 1 -236 -1z"/>
<path d="M1300 809 l0 -522 68 6 c37 4 110 9 162 12 52 3 127 8 165 11 l70 5
0 76 0 76 -142 -7 -143 -7 0 436 0 435 -90 0 -90 0 0 -521z"/>
<path d="M3040 820 l0 -509 33 -5 c17 -3 102 -10 187 -16 85 -6 176 -13 203
-17 l47 -6 0 80 0 80 -47 6 c-27 4 -92 9 -145 13 l-98 7 0 438 0 439 -90 0
-90 0 0 -510z"/>
<path d="M775 1308 c-13 -41 -179 -1087 -173 -1093 2 -2 40 1 83 8 l79 12 14
100 c7 55 16 103 20 107 4 3 52 10 108 13 l101 7 12 -76 c6 -42 11 -86 11 -98
0 -20 3 -21 92 -14 51 4 93 8 94 9 3 4 -159 955 -173 1015 -5 21 -9 22 -134
22 -95 0 -131 -3 -134 -12z m169 -451 c21 -132 36 -240 34 -242 -2 -2 -38 -6
-80 -10 -63 -6 -78 -5 -78 6 -1 40 75 498 81 492 3 -5 23 -115 43 -246z"/>
<path d="M3580 791 l0 -529 63 -7 c34 -3 74 -8 90 -11 l27 -6 0 541 0 541 -90
0 -90 0 0 -529z"/>
<path d="M3865 1303 c4 -10 45 -126 92 -258 77 -216 84 -244 75 -275 -5 -19
-49 -147 -97 -283 -47 -137 -85 -251 -83 -253 6 -5 158 -27 162 -23 2 2 34
100 71 217 38 117 72 209 76 205 4 -5 38 -111 74 -238 36 -126 67 -230 68
-231 6 -4 181 -33 184 -30 3 2 -107 371 -165 552 l-29 91 90 257 c49 141 87
260 83 263 -3 3 -39 8 -79 11 l-74 4 -50 -143 c-28 -79 -58 -169 -68 -199
l-18 -55 -67 200 -67 200 -93 3 c-85 3 -92 1 -85 -15z"/>
<path d="M133 1303 l-33 -4 0 -586 0 -585 23 6 c12 3 112 20 222 37 110 17
206 33 213 35 8 2 12 29 12 88 l0 86 -27 -5 c-35 -7 -244 -35 -255 -35 -4 0
-8 218 -8 485 l0 485 -57 -2 c-32 0 -73 -3 -90 -5z"/>
</g>
</svg>
