<?xml version="1.0" standalone="no"?>
<!DOCTYPE svg PUBLIC "-//W3C//DTD SVG 20010904//EN"
 "http://www.w3.org/TR/2001/REC-SVG-20010904/DTD/svg10.dtd">
<svg version="1.0" xmlns="http://www.w3.org/2000/svg"
 width="430.000000pt" height="139.000000pt" viewBox="0 0 430.000000 139.000000"
 preserveAspectRatio="xMidYMid meet">

<g transform="translate(0.000000,139.000000) scale(0.100000,-0.100000)"
fill="#000000" stroke="none">
<path d="M100 710 l0 -581 33 6 c17 3 52 9 77 13 l45 8 5 384 5 385 48 -295
c26 -162 52 -330 59 -374 l12 -78 65 6 c116 12 106 1 125 144 9 70 34 237 55
372 l39 245 1 -368 c1 -346 2 -368 19 -363 9 2 47 7 85 11 l67 7 0 529 0 529
-123 0 -123 0 -48 -307 c-26 -170 -53 -339 -59 -378 l-11 -70 -57 345 c-32
190 -61 360 -64 378 l-6 32 -124 0 -125 0 0 -580z"/>
<path d="M970 770 l0 -520 33 0 c17 0 79 4 137 9 58 6 151 13 208 16 l102 7 0
79 c0 58 -3 77 -12 74 -7 -2 -75 -6 -150 -10 l-138 -6 0 155 0 155 118 3 117
3 3 74 3 74 -121 -6 -120 -7 0 140 0 140 150 0 150 0 0 70 0 70 -240 0 -240 0
0 -520z"/>
<path d="M1552 868 l3 -423 25 -45 c14 -24 45 -58 68 -75 39 -27 53 -30 132
-33 146 -6 226 34 274 138 20 43 21 63 24 453 l3 407 -85 0 -85 0 -3 -400 -3
-399 -23 -23 c-32 -33 -106 -32 -133 1 -18 22 -19 44 -19 422 l0 399 -90 0
-91 0 3 -422z"/>
<path d="M2190 795 l0 -495 90 0 90 0 0 210 0 210 115 0 115 0 0 70 0 70 -115
0 -115 0 0 145 0 145 145 0 145 0 0 70 0 70 -235 0 -235 0 0 -495z"/>
<path d="M2740 790 c0 -275 1 -500 3 -501 8 -1 417 -28 440 -29 l27 0 0 74 c0
63 -3 75 -17 80 -10 2 -75 8 -145 11 l-128 7 0 429 0 429 -90 0 -90 0 0 -500z"/>
<path d="M3290 771 l0 -520 45 -5 c25 -3 65 -9 90 -12 l45 -5 0 530 0 531 -90
0 -90 0 0 -519z"/>
<path d="M3656 1033 c77 -216 90 -261 82 -282 -12 -32 -188 -523 -188 -527 0
-1 26 -5 58 -8 31 -4 69 -9 84 -12 27 -5 27 -5 94 203 37 114 70 211 73 215 6
7 113 -336 136 -433 6 -24 13 -27 98 -42 51 -8 94 -13 95 -12 5 5 -40 159
-120 409 l-69 219 87 251 c48 138 89 257 92 264 3 9 -17 12 -80 12 l-84 0 -65
-190 c-35 -104 -67 -190 -70 -190 -3 0 -13 26 -23 58 -9 31 -37 117 -63 190
l-45 132 -93 0 -92 0 93 -257z"/>
</g>
</svg>
